<?xml version="1.0" encoding="UTF-8"?>
<!DOCTYPE svg PUBLIC "-//W3C//DTD SVG 1.1//EN" "http://www.w3.org/Graphics/SVG/1.1/DTD/svg11.dtd">
<!-- Creator: CorelDRAW 2019 (64-Bit) -->
<svg xmlns="http://www.w3.org/2000/svg" xml:space="preserve" width="4580px" height="1080px" version="1.1" style="shape-rendering:geometricPrecision; text-rendering:geometricPrecision; image-rendering:optimizeQuality; fill-rule:evenodd; clip-rule:evenodd"
viewBox="0 0 4580 1080.06"
 xmlns:xlink="http://www.w3.org/1999/xlink"
 xmlns:xodm="http://www.corel.com/coreldraw/odm/2003">
 <defs>
  <style type="text/css">
   <![CDATA[
    .fil0 {fill:black}
    .fil1 {fill:#00AA13}
   ]]>
  </style>
 </defs>
 <g id="Layer_x0020_1">
  <metadata id="CorelCorpID_0Corel-Layer"/>
  <g id="_2076249232480">
   <path class="fil0" d="M2752.55 1076.12c83.64,8.24 203.68,7.38 263.97,-41.17 31.89,-25.68 45.7,-50.29 54.86,-102.91 12.52,-71.9 6.32,-664.83 6.32,-768.75l-167.05 1.99c0,153.3 0,306.61 0,459.91 0,363.15 19.39,284.34 -158.1,301.82l0 149.11zm-1108.75 -756.71c99.59,-25.79 207.07,20.52 219.52,111.29 16.2,118.04 -22.65,186.24 -122.94,208.62 -243.37,54.32 -304.86,-266 -96.58,-319.91zm796.19 -4.16c229.7,-41.49 277.36,282.73 78.24,327.03 -107.55,23.93 -192.62,-33.54 -211.29,-119.01 -21.7,-99.27 22.78,-188.1 133.05,-208.02zm-303.96 194.61c17.83,190.95 183.77,293.99 364.41,284.07 183.55,-10.07 322.86,-147.44 309.97,-341.78 -26.82,-404.26 -714.86,-375.67 -674.38,57.71zm-263.77 -276.35c-83.39,-69.27 -233.07,-98.69 -352.56,-36.57 -296.94,154.35 -190.39,637.04 204.75,591.53 95.66,-11.02 115.78,-51.04 149.6,-68.66 2.2,46.56 -1.48,94.76 -22.49,131.77 -14.51,25.56 -50.3,53.79 -94.07,64.14 -122.82,29.06 -178.58,-15.33 -247.79,-61.57l-103.94 100.8c12.61,22.96 33.57,36.28 58.33,52.67 153.04,101.25 401.3,101.67 521.32,-65.08 66.21,-92.02 48.34,-243.8 48.34,-368.07 0,-136.99 0,-273.99 0,-410.98l-161.71 0 0.22 70.02zm1473.6 181.49c25.57,-159.99 305.22,-150.54 319.33,0l-319.33 0zm484.61 118.57c0,-175.15 -59.78,-321.69 -245.96,-360.75 -413.22,-86.7 -557.33,445.78 -223.95,590.14 161.37,69.87 364.69,18.74 436.47,-87.46 -19.02,-20.97 -86.8,-67.25 -113.5,-79.05 -94.4,105.31 -313.15,77.3 -341.01,-62.82l487.95 -0.06zm470.11 -111.69l274.84 -254.1 -217.72 -4.94 -268.19 251.57 1.45 -413.79 -161.68 -0.62 1.8 795.87 158.06 0 0.51 -171.64 105.52 -91.35 208.4 262.99 176.43 -1.44 -68.1 -90.8 -196.25 -256.16 -15.07 -25.59z"/>
   <circle class="fil1" cx="537.27" cy="540.24" r="203.7"/>
   <path class="fil1" d="M450.72 963.27l0.01 -0.05c14.12,-48.56 -8.84,-99.25 -54.65,-120.68 -113.64,-53.16 -192.38,-168.53 -192.38,-302.3 0,-184.22 149.35,-333.56 333.57,-333.56 184.22,0 333.56,149.34 333.56,333.56 0,132.81 -77.61,247.49 -189.95,301.16 -47.03,22.47 -69.41,76.1 -52.3,125.34l0.02 0.04c9.86,28.38 29.28,49 57,60.57 27.73,11.56 56.04,10.84 83.14,-2.12 180.86,-86.48 305.8,-271.14 305.8,-484.99 0,-296.72 -240.55,-537.26 -537.27,-537.26 -296.73,0 -537.27,240.54 -537.27,537.26 0,215.39 126.75,401.18 309.72,486.85 27.91,13.07 57.11,13.25 85.19,0.54 28.07,-12.7 47.2,-34.77 55.81,-64.36z"/>
  </g>
 </g>
</svg>
