<?xml version="1.0" encoding="UTF-8"?>
<!DOCTYPE svg PUBLIC "-//W3C//DTD SVG 1.1//EN" "http://www.w3.org/Graphics/SVG/1.1/DTD/svg11.dtd">
<!-- Creator: CorelDRAW 2019 (64-Bit) -->
<svg xmlns="http://www.w3.org/2000/svg" xml:space="preserve" width="1521px" height="1080px" version="1.1" style="shape-rendering:geometricPrecision; text-rendering:geometricPrecision; image-rendering:optimizeQuality; fill-rule:evenodd; clip-rule:evenodd"
viewBox="0 0 1521 1080.09"
 xmlns:xlink="http://www.w3.org/1999/xlink"
 xmlns:xodm="http://www.corel.com/coreldraw/odm/2003">
 <defs>
  <style type="text/css">
   <![CDATA[
    .fil7 {fill:#FEFEFE}
    .fil5 {fill:#FCD066}
    .fil4 {fill:#FDF8B4}
    .fil6 {fill:#EEEFEE}
    .fil2 {fill:#89C45F}
    .fil1 {fill:#5FB74E}
    .fil0 {fill:#4D4C4B}
    .fil8 {fill:#3CAF41}
    .fil3 {fill:#4A9E4B}
   ]]>
  </style>
 </defs>
 <g id="Layer_x0020_1">
  <metadata id="CorelCorpID_0Corel-Layer"/>
  <g id="_2140068228016">
   <path class="fil0" d="M760.63 153.99c31.33,-15.65 69.33,-24.19 104.1,-27.2l39.08 -3.41c42.81,-3.68 85.64,-1.42 128.5,-1.42l23.5 0 0 23.5c0,104.34 0,208.71 0,313.07l0 12c0,107.73 -88.09,195.82 -195.85,195.82l-394.77 0 0 -544.39 23.49 0c42.9,0 85.58,-2.82 128.47,0.51l39.07 2.95c37.12,2.79 71.1,11.8 104.41,28.57z"/>
   <path class="fil1" d="M488.68 145.46l0 268.19 0 44.88 0 12 0 172.33 172.3 0 27.09 0 171.89 0c94.8,0 172.35,-77.57 172.35,-172.33l0 -12c0,-103.75 0,-204.96 0,-313.07 -41.19,0 -84.69,-1.01 -126.46,1.35l-39.09 3.37c-38.25,4.65 -76.95,13.58 -106.27,30.5 -31.65,-18.29 -66.17,-27.38 -106.04,-31.85l-39.08 -2.97c-42.62,-1.98 -86.31,-0.4 -126.69,-0.4z"/>
   <path class="fil2" d="M537.42 642.86l123.56 0 27.09 0 171.89 0c42,0 80.58,-15.23 110.54,-40.4 -34.99,-81.34 -115.87,-138.26 -210.02,-138.26 -109.09,0 -200.31,76.42 -223.06,178.66z"/>
   <path class="fil3" d="M760.49 642.86l101.48 -1.5c41.44,0 79.16,-14.61 108.54,-38.89 37.83,-31.26 61.8,-78.6 61.8,-131.94l0 -12c0,-103.75 0,-204.96 0,-313.07 -41.19,0 -84.69,-1.01 -126.46,1.35l-39.09 3.37c-38.25,4.65 -76.95,13.58 -106.27,30.5l0 462.18z"/>
   <path class="fil1" d="M760.49 642.86l100.1 0c42,0 79.96,-15.22 109.92,-40.39 -34.61,-80.42 -117.21,-136.99 -210.02,-138.23l0 178.62z"/>
   <path class="fil0" d="M905.85 130.53c-7.47,-73.37 -69.47,-130.53 -144.74,-130.53 -75.24,0 -137.21,56.67 -145.74,129.61l39.08 2.98c6.91,-52.68 51.81,-93.41 106.51,-93.41 54.67,0 99.97,41.43 105.8,94.71l39.09 -3.36z"/>
   <path class="fil0" d="M824.06 487.13c-17.03,18.01 -34.04,36.03 -51.06,54.06l-12.52 13.27 -12.5 -13.27c-17.03,-18 -34.04,-36.05 -51.06,-54.06l-8.81 -9.35 6.44 -11.12c13.65,-23.54 39.19,-36.21 65.93,-36.21 26.77,0 52.29,12.67 65.95,36.21l6.45 11.12 -8.82 9.35z"/>
   <path class="fil4" d="M811.52 475.32c-16.98,18.02 -34.03,36.02 -51.04,54.06 -17.01,-18.04 -34.03,-36.04 -51.05,-54.06 10.75,-18.53 30.93,-27.69 51.05,-27.65 20.13,-0.04 40.31,9.12 51.04,27.65z"/>
   <path class="fil5" d="M811.52 475.32c-16.98,18.02 -34.03,36.02 -51.04,54.06l0 -81.71c20.13,-0.04 40.31,9.12 51.04,27.65z"/>
   <path class="fil0" d="M632.93 213.25c76.25,0 138.09,61.88 138.09,138.1 0,76.25 -61.84,138.1 -138.09,138.1 -76.26,0 -138.08,-61.85 -138.08,-138.1 0,-76.22 61.82,-138.1 138.08,-138.1z"/>
   <path class="fil6" d="M632.93 236.75c63.29,0 114.61,51.32 114.61,114.6 0,63.27 -51.32,114.6 -114.61,114.6 -63.31,0 -114.6,-51.33 -114.6,-114.6 0,-63.28 51.29,-114.6 114.6,-114.6z"/>
   <path class="fil7" d="M632.93 236.75c52.23,0 96.31,34.96 110.12,82.75 -13.81,47.77 -57.89,82.74 -110.12,82.74 -52.25,0 -96.29,-34.97 -110.1,-82.74 13.81,-47.79 57.85,-82.75 110.1,-82.75z"/>
   <path class="fil0" d="M888.05 213.25c76.27,0 138.08,61.88 138.08,138.1 0,76.25 -61.81,138.1 -138.08,138.1 -76.26,0 -138.1,-61.82 -138.1,-138.1 0,-76.22 61.84,-138.1 138.1,-138.1z"/>
   <path class="fil6" d="M888.05 236.75c63.28,0 114.61,51.32 114.61,114.6 0,63.27 -51.33,114.6 -114.61,114.6 -63.29,0 -114.6,-51.33 -114.6,-114.6 0,-63.28 51.31,-114.6 114.6,-114.6z"/>
   <path class="fil7" d="M888.05 236.75c52.22,0 96.3,34.96 110.09,82.75 -13.78,47.77 -57.87,82.74 -110.09,82.74 -52.25,0 -96.31,-34.97 -110.12,-82.74 13.81,-47.79 57.87,-82.75 110.12,-82.75z"/>
   <path class="fil0" d="M647.33 280.08c40.87,0 74.03,33.14 74.03,73.97 0,40.9 -33.16,74.03 -74.03,74.03 -40.9,0 -74.03,-33.13 -74.03,-74.03 0,-13.62 3.71,-26.38 10.15,-37.36 5.28,13.07 18.06,22.24 33.05,22.24 19.68,0 35.66,-15.92 35.66,-35.61 0,-8.87 -3.24,-16.95 -8.56,-23.16 1.23,-0.08 2.49,-0.08 3.73,-0.08z"/>
   <path class="fil0" d="M873.62 280.08c40.91,0 74.05,33.14 74.05,73.97 0,40.9 -33.14,74.03 -74.05,74.03 -40.86,0 -74,-33.13 -74,-74.03 0,-13.62 3.69,-26.38 10.11,-37.36 5.31,13.07 18.12,22.24 33.09,22.24 19.68,0 35.63,-15.92 35.63,-35.61 0,-8.87 -3.2,-16.95 -8.54,-23.16 1.25,-0.08 2.47,-0.08 3.71,-0.08z"/>
   <path class="fil8" d="M813.15 982.93c-16.52,16.77 -36.3,25.21 -59.21,25.21 -18.53,0 -34.28,-3.79 -50.36,-13.12l0 -38.45c12.94,8.76 29.17,17.11 45.21,17.11 33.42,0 53.32,-23 53.32,-55.6 0,-32.64 -20.59,-56.33 -54.02,-56.33 -14.95,0 -27.04,5.37 -36.5,16.13 -10.14,11.67 -15.38,28.33 -15.38,50.36l0 151.85 -2.52 0c-18.42,0 -33.36,-14.94 -33.36,-33.35l0 -124.19c0,-52.7 32.23,-95.24 87.6,-95.24 27.33,0 49.54,9.34 66.37,28.12 15.83,17.54 23.69,39.79 23.69,66.54 0,23.82 -8.28,44.17 -24.84,60.96zm-760.66 21.66c-35.07,0 -52.49,-23.86 -52.49,-57.19l0 -126.44c0,-18.42 14.93,-33.35 33.36,-33.35l2.51 0 0 43.24 60.61 0 0 34.45 -60.61 0 0 86.09c0,14.64 6.54,18.76 20.52,18.76l40.09 0 0 34.44 -43.99 0zm208.34 -21.96c-17.74,17 -39.03,25.51 -63.78,25.51 -24.51,0 -45.7,-8.52 -63.41,-25.51 -17.78,-17.05 -26.65,-38.75 -26.65,-64.91 0,-51.02 38.97,-90.41 90.06,-90.41 24.53,0 45.76,8.58 63.6,25.68 17.89,17.16 26.83,38.8 26.83,64.73 0,26.16 -8.88,47.86 -26.65,64.91zm167.7 -109.98c-5.26,8.83 -9.34,15.16 -12.21,18.98 -3.17,4.15 -6.29,7.48 -9.38,9.77 24.93,8.06 34.21,25.33 34.21,51.06l0.01 52.13 -2.53 0c-18.42,0 -33.36,-14.93 -33.36,-33.35l0 -15.25c0,-16.65 -7.46,-27.96 -25.12,-27.96l-32.58 0 0 76.56 -2.51 0c-18.42,0 -33.36,-14.93 -33.36,-33.35l0 -185.01c0,-18.42 14.94,-33.36 33.36,-33.36l2.51 0 0 140.35 10.61 0c11.64,0 19.31,-3.97 23.7,-11.51l30.13 -50.86 40.88 -0.03 -24.36 41.83zm185.18 109.98c-17.72,17 -39.03,25.51 -63.78,25.51 -24.5,0 -45.68,-8.52 -63.41,-25.51 -17.78,-17.05 -26.64,-38.75 -26.64,-64.91 0,-51.02 38.96,-90.41 90.05,-90.41 24.54,0 45.77,8.58 63.6,25.68 17.89,17.16 26.83,38.8 26.83,64.73 0,26.16 -8.87,47.86 -26.65,64.91zm-25.89 -105.34c-9.89,-10.35 -22.46,-15.54 -37.89,-15.54 -33.01,0 -52.76,24.07 -52.76,55.97 0,31.46 20.23,55.96 52.76,55.96 32.57,0 52.77,-24.5 52.77,-55.96 0,-16.7 -5,-30.1 -14.88,-40.43zm-352.89 0c-9.89,-10.35 -22.45,-15.54 -37.88,-15.54 -33.01,0 -52.76,24.07 -52.76,55.97 0,31.46 20.23,55.96 52.76,55.96 32.55,0 52.78,-24.5 52.78,-55.96 0,-16.7 -5.01,-30.1 -14.9,-40.43zm966.63 104.36c-16.47,17.67 -37.65,26.49 -63.36,26.49 -27.1,0 -49.2,-9.36 -66.02,-28.13 -15.81,-17.76 -23.68,-40.02 -23.68,-66.54 0,-46.95 36.25,-86.16 83.9,-86.16 18.4,0 34.37,3.86 50.51,12.72l0 38.84c-12.95,-8.76 -29.19,-17.12 -45.2,-17.12 -33.42,0 -53.33,23 -53.33,55.61 0,32.19 21.06,56.32 54.01,56.32 14.92,0 27.21,-5.6 37.04,-16.85 9.77,-11.2 14.85,-27.65 14.85,-49.74l0 -120.86c0,-18.42 14.93,-33.36 33.36,-33.36l2.51 0 0 159.88c0,28.17 -8.14,51.21 -24.59,68.9zm101.3 -171.42c-3.77,4.22 -9.17,6.16 -15.76,6.16 -12.31,0 -21.11,-9.09 -21.11,-21.3 0,-12.51 8.65,-20.95 21.11,-20.95 12.01,0 21.13,8.9 21.13,20.95 0,5.96 -1.74,11.07 -5.37,15.14zm182.26 96.86c0,-14.14 -5.35,-25.33 -16.11,-33.82 -9.68,-7.63 -21.79,-11.52 -36.49,-11.52 -32.46,0 -53.3,25.38 -53.3,56.67 0,30.13 22.08,55.26 52.98,55.26 21.46,0 32.95,-12.55 45.2,-28.17l0 45.07c-6.25,4.67 -13.42,9.76 -20.76,12.75 -7.73,3.24 -16.94,4.81 -27.61,4.81 -51.63,0 -85.68,-42.77 -85.68,-92.19 0,-25.38 7.88,-46.35 23.74,-62.72 16.85,-17.33 38.92,-25.92 65.96,-25.92 51.27,0 87.95,29.43 87.95,82.61l0 94.67 -2.52 0c-18.42,0 -33.36,-14.93 -33.36,-33.35l0 -64.15zm-491.06 -10.16c-4.54,-14.02 -10.22,-20.92 -23.3,-28.21 -31.07,-17.38 -61.67,-2.6 -75.9,28.07l99.2 0.14zm-27.37 110.68c-22.92,4.86 -45.4,1.11 -67.33,-11.13 -21.39,-11.96 -35.74,-29.74 -42.91,-53.21 -14.52,-47.49 15.23,-100.42 63.06,-113.24 23.72,-6.35 46.46,-3.47 68.06,8.61 35.89,20.05 48.96,51.07 46.68,91.05l-144.52 -0.3c2.12,16.31 12.24,29.07 26.44,37.01 14.4,8.05 27.65,9.97 39.95,6.16 13.63,-4.29 24.7,-15.42 33.7,-25.79l29.46 21.46c-12.02,21.5 -28.38,34.22 -52.59,39.38zm302.48 -176.76l35.87 0 0 173.74 -2.52 0c-18.41,0 -33.35,-14.93 -33.35,-33.35l0 -140.39z"/>
  </g>
 </g>
</svg>
